<?xml version="1.0" encoding="UTF-8" standalone="no"?>
<!-- Created with Inkscape (http://www.inkscape.org/) -->

<svg
   sodipodi:docname="org.endlessos.avatarCreator-symbolic.svg"
   height="16"
   id="svg7384"
   inkscape:version="1.1.1 (3bf5ae0d25, 2021-09-20)"
   version="1.1"
   width="16"
   xmlns:inkscape="http://www.inkscape.org/namespaces/inkscape"
   xmlns:sodipodi="http://sodipodi.sourceforge.net/DTD/sodipodi-0.dtd"
   xmlns="http://www.w3.org/2000/svg"
   xmlns:svg="http://www.w3.org/2000/svg"
   xmlns:rdf="http://www.w3.org/1999/02/22-rdf-syntax-ns#"
   xmlns:cc="http://creativecommons.org/ns#"
   xmlns:dc="http://purl.org/dc/elements/1.1/">
  <metadata
     id="metadata90">
    <rdf:RDF>
      <cc:Work
         rdf:about="">
        <dc:format>image/svg+xml</dc:format>
        <dc:type
           rdf:resource="http://purl.org/dc/dcmitype/StillImage" />
        <dc:title>Gnome Symbolic Icon Theme</dc:title>
      </cc:Work>
    </rdf:RDF>
  </metadata>
  <sodipodi:namedview
     inkscape:bbox-paths="true"
     bordercolor="#666666"
     borderopacity="1"
     inkscape:current-layer="layer9"
     inkscape:cx="9.9483207"
     inkscape:cy="7.0983758"
     gridtolerance="10"
     inkscape:guide-bbox="true"
     guidetolerance="10"
     id="namedview88"
     inkscape:object-nodes="false"
     inkscape:object-paths="false"
     objecttolerance="10"
     pagecolor="#555753"
     inkscape:pageopacity="1"
     inkscape:pageshadow="2"
     showborder="true"
     showgrid="false"
     showguides="true"
     inkscape:snap-bbox="true"
     inkscape:snap-bbox-midpoints="false"
     inkscape:snap-global="true"
     inkscape:snap-grids="true"
     inkscape:snap-nodes="true"
     inkscape:snap-others="true"
     inkscape:snap-to-guides="true"
     inkscape:window-height="1011"
     inkscape:window-maximized="1"
     inkscape:window-width="1920"
     inkscape:window-x="0"
     inkscape:window-y="32"
     inkscape:zoom="47.193895"
     inkscape:pagecheckerboard="0">
    <inkscape:grid
       empspacing="2"
       enabled="true"
       id="grid4866"
       originx="117.99999"
       originy="18"
       snapvisiblegridlinesonly="true"
       spacingx="1"
       spacingy="1"
       type="xygrid"
       visible="true" />
    <sodipodi:guide
       position="-8.365,8"
       orientation="0,1"
       id="guide821"
       inkscape:locked="false"
       inkscape:label=""
       inkscape:color="rgb(0,0,255)" />
    <sodipodi:guide
       position="8,18.874962"
       orientation="1,0"
       id="guide823"
       inkscape:locked="false"
       inkscape:label=""
       inkscape:color="rgb(0,0,255)" />
  </sodipodi:namedview>
  <title
     id="title9167">Gnome Symbolic Icon Theme</title>
  <defs
     id="defs7386">
    <clipPath
       id="clip0_23:3731">
      <rect
         width="64"
         height="64"
         fill="#ffffff"
         transform="translate(128)"
         id="rect88"
         x="0"
         y="0" />
    </clipPath>
    <clipPath
       id="clip1_23:3731">
      <rect
         width="64"
         height="64"
         fill="#ffffff"
         transform="translate(64,64)"
         id="rect91"
         x="0"
         y="0" />
    </clipPath>
    <clipPath
       id="clip2_23:3731">
      <rect
         width="64"
         height="64"
         fill="#ffffff"
         transform="translate(128,64)"
         id="rect94"
         x="0"
         y="0" />
    </clipPath>
    <clipPath
       id="clip3_23:3731">
      <rect
         width="64"
         height="64"
         fill="#ffffff"
         transform="rotate(-90,128,0)"
         id="rect97"
         x="0"
         y="0" />
    </clipPath>
    <clipPath
       id="clip4_23:3731">
      <rect
         width="64"
         height="64"
         fill="#ffffff"
         transform="rotate(180,32,96)"
         id="rect100"
         x="0"
         y="0" />
    </clipPath>
    <clipPath
       id="clip6_23:3731">
      <rect
         width="64"
         height="64"
         fill="#ffffff"
         transform="translate(128,128)"
         id="rect104"
         x="0"
         y="0" />
    </clipPath>
  </defs>
  <g
     inkscape:groupmode="layer"
     id="layer9"
     inkscape:label="apps"
     style="display:inline"
     transform="translate(-123.00021,-235)">
    <path
       style="opacity:1;fill:#bebebe;fill-opacity:1;stroke:none;stroke-width:0.2;stroke-linecap:round;stroke-linejoin:round;stroke-miterlimit:4;stroke-dasharray:none;stroke-opacity:1"
       d="m 96.146013,219.04215 a 7,7 0 0 0 -7,7 7,7 0 0 0 7,7 7,7 0 0 0 6.999997,-7 7,7 0 0 0 -6.999997,-7 z m 1.96875,1.33984 a 6,6 0 0 1 4.031247,5.66016 h -5.392575 a 0.60691392,0.60691392 0 0 1 -0.607422,0.60742 0.60691392,0.60691392 0 0 1 -0.607422,-0.60742 0.60691392,0.60691392 0 0 1 0.08594,-0.3086 l -4.632812,-2.75 a 6,6 0 0 1 3.152344,-2.58984 l 1.798828,5.07617 a 0.60691392,0.60691392 0 0 1 0.203125,-0.0351 0.60691392,0.60691392 0 0 1 0.199218,0.0351 z"
       id="path819" />
    <path
       d="m 124.00021,237.16667 c 0,-0.64434 0.52233,-1.16667 1.16667,-1.16667 h 3.5 v 4.66667 h -4.66667 z"
       fill="#75b046"
       id="path2"
       style="stroke-width:0.116667;fill:#bebebe;fill-opacity:1" />
    <rect
       x="128.66687"
       width="4.666667"
       height="4.666667"
       fill="#75b046"
       id="rect8"
       y="236"
       style="stroke-width:0.116667;fill:#bebebe;fill-opacity:1" />
    <g
       clip-path="url(#clip0_23:3731)"
       id="g16"
       transform="matrix(0.07291667,0,0,0.07291667,124.00021,236)"
       style="stroke-width:1.60001;fill:#bebebe;fill-opacity:1">
      <path
         d="M 176,-6.99382e-7 C 184.837,-3.13124e-7 192,7.16344 192,16 V 64 H 128 V -2.79753e-6 Z"
         fill="#75b046"
         id="path10"
         style="stroke-width:2.37525;fill:#bebebe;fill-opacity:1" />
      <circle
         cx="144"
         cy="16"
         r="4"
         fill="#970b36"
         id="circle12"
         style="stroke-width:2.37525;fill:#bebebe;fill-opacity:1" />
      <circle
         cx="176"
         cy="16"
         r="4"
         fill="#970b36"
         id="circle14"
         style="stroke-width:2.37525;fill:#bebebe;fill-opacity:1" />
    </g>
    <path
       id="rect20"
       style="stroke-width:0.116667;fill:#bebebe;fill-opacity:1"
       d="M 1 5.6660156 L 1 10.333984 L 5.6660156 10.333984 L 5.6660156 5.6660156 L 1 5.6660156 z M 3.3046875 6.90625 C 3.3140962 6.9060132 3.3245166 6.90625 3.3339844 6.90625 C 3.9399219 6.90625 4.4277344 7.3940626 4.4277344 8 C 4.4277344 8.6059374 3.9399219 9.09375 3.3339844 9.09375 C 2.7280469 9.09375 2.2402344 8.6059374 2.2402344 8 C 2.2402344 7.4035303 2.7119403 6.9211671 3.3046875 6.90625 z M 3.3339844 7.7089844 A 0.29166669 0.29166669 0 0 0 3.0410156 8 A 0.29166669 0.29166669 0 0 0 3.3339844 8.2910156 A 0.29166669 0.29166669 0 0 0 3.625 8 A 0.29166669 0.29166669 0 0 0 3.3339844 7.7089844 z "
       transform="translate(123.00021,235)" />
    <path
       id="rect38"
       style="stroke-width:0.173195;fill:#bebebe;fill-opacity:1"
       d="M 5.6660156 5.6660156 L 5.6660156 10.333984 L 5.6894531 10.322266 L 8 5.6660156 L 5.6660156 5.6660156 z M 8 5.6660156 L 10.298828 10.296875 L 10.333984 10.316406 L 10.333984 5.6660156 L 8 5.6660156 z "
       transform="translate(123.00021,235)" />
    <path
       id="rect50"
       style="fill:#bebebe;fill-opacity:1;stroke-width:0.173195"
       d="m 133.33419,240.66602 v 4.66796 h 4.66602 v -4.66796 z m 2.3125,1.24023 c 0.009,-2.4e-4 0.0203,0 0.0293,0 0.60594,0 1.09375,0.48781 1.09375,1.09375 0,0.60594 -0.48781,1.09375 -1.09375,1.09375 -0.60593,0 -1.09375,-0.48781 -1.09375,-1.09375 0,-0.59647 0.4717,-1.07885 1.06445,-1.09375 z m 0.0293,0.80273 A 0.29166669,0.29166669 0 0 0 135.38302,243 a 0.29166669,0.29166669 0 0 0 0.29297,0.29102 0.29166669,0.29166669 0 0 0 0.29102,-0.29102 0.29166669,0.29166669 0 0 0 -0.29102,-0.29102 z" />
    <g
       clip-path="url(#clip4_23:3731)"
       id="g62"
       transform="matrix(0.07291667,0,0,0.07291667,124.00021,236)"
       style="stroke-width:1.60001;fill:#bebebe;fill-opacity:1">
      <path
         d="M 48,144 8.39259e-6,128 H 64 v 64 z"
         fill="#c6cbd0"
         id="path60"
         style="stroke-width:2.37525;fill:#bebebe;fill-opacity:1" />
    </g>
    <path
       id="rect64"
       style="stroke-width:0.116667;fill:#bebebe;fill-opacity:1"
       d="M 5.6660156 10.333984 L 5.6660156 15 L 10.333984 15 L 10.333984 10.333984 L 5.6660156 10.333984 z M 5.8125 11.646484 L 10.1875 11.646484 L 10.1875 13.6875 L 5.8125 13.6875 L 5.8125 11.646484 z "
       transform="translate(123.00021,235)" />
    <g
       clip-path="url(#clip6_23:3731)"
       id="g86"
       transform="matrix(0.07291667,0,0,0.07291667,124.00021,236)"
       style="stroke-width:1.60001;fill:#bebebe;fill-opacity:1">
      <path
         d="m 144,144 -16,48 v -64 h 64 z"
         fill="#c6cbd0"
         id="path84"
         style="stroke-width:2.37525;fill:#bebebe;fill-opacity:1" />
    </g>
  </g>
</svg>
