<svg width="16" height="16" viewBox="0 0 16 16" fill="none" xmlns="http://www.w3.org/2000/svg">
<path d="M2.16667 1C1.52233 1 1 1.52233 1 2.16667V5.66667V10.3333L4.5 11.5L5.66667 15L10.3333 15L11.5 11.5L14.9997 10.3333V5.66667V2.16667C14.9997 1.52233 14.4773 1 13.833 1H5.66667H2.16667Z" fill="black"/>
<path d="M13.8333 15C14.4777 15 15 14.4777 15 13.8333L15 10.3333L15 5.66667L11.5 4.5L10.3333 0.999999L5.66666 1.00002L4.5 4.5L1.00033 5.66666L1.00033 10.3333L1.00033 13.8333C1.00033 14.4777 1.52266 15 2.16699 15L10.3333 15L13.8333 15Z" fill="black"/>
<circle cx="2.5" cy="2.5" r="0.5" fill="#E5E5E5"/>
<circle cx="13.5" cy="2.5" r="0.5" fill="#E5E5E5"/>
<path d="M2 7C2 5.89543 2.89543 5 4 5V5C5.10457 5 6 5.89543 6 7V7C6 8.10457 5.10457 9 4 9V9C2.89543 9 2 8.10457 2 7V7Z" fill="#E5E5E5"/>
<circle cx="4" cy="7" r="1" fill="black"/>
<path d="M12 9C10.8954 9 10 8.10457 10 7V7C10 5.89543 10.8954 5 12 5V5C13.1046 5 14 5.89543 14 7V7C14 8.10457 13.1046 9 12 9V9Z" fill="#E5E5E5"/>
<circle cx="12" cy="7" r="1" fill="black"/>
<rect x="4" y="11" width="8" height="2" fill="#E5E5E5"/>
<line x1="6.5" y1="11" x2="6.5" y2="13" stroke="black"/>
<line x1="9.5" y1="11" x2="9.5" y2="13" stroke="black"/>
</svg>
