<svg width="128" height="128" viewBox="0 0 128 128" fill="none" xmlns="http://www.w3.org/2000/svg">
<path d="M4 14C4 8.47715 8.47715 4 14 4H44V44H4V14Z" fill="#75B046"/>
<circle cx="14" cy="14" r="2.5" fill="#970B36"/>
<circle cx="34" cy="14" r="2.5" fill="#970B36"/>
<rect x="44" y="4" width="40" height="40" fill="#75B046"/>
<path d="M114 4C119.523 4 124 8.47715 124 14V44H84L84 4L114 4Z" fill="#75B046"/>
<circle cx="94" cy="14" r="2.5" fill="#970B36"/>
<ellipse cx="114" cy="14" rx="2.5" ry="2.5" fill="#970B36"/>
<g clip-path="url(#clip0_59_13913)">
<rect x="4" y="44" width="40" height="40" fill="#C6CBD0"/>
<path d="M14 64C14 58.4772 18.4772 54 24 54V54C29.5228 54 34 58.4772 34 64V64C34 69.5229 29.5228 74 24 74V74C18.4772 74 14 69.5229 14 64V64Z" fill="#F8AA04"/>
<path fill-rule="evenodd" clip-rule="evenodd" d="M15.25 64C15.25 68.8325 19.1675 72.75 24 72.75C28.8325 72.75 32.75 68.8325 32.75 64C32.75 59.1675 28.8325 55.25 24 55.25C19.1675 55.25 15.25 59.1675 15.25 64ZM24 54C18.4772 54 14 58.4772 14 64C14 69.5229 18.4772 74 24 74C29.5228 74 34 69.5229 34 64C34 58.4772 29.5228 54 24 54Z" fill="#970B36"/>
<path fill-rule="evenodd" clip-rule="evenodd" d="M32.75 64.625L15.25 64.625V63.375L32.75 63.375V64.625Z" fill="#FF7A02"/>
<ellipse cx="24" cy="64" rx="2.5" ry="2.5" fill="#970B36"/>
<path fill-rule="evenodd" clip-rule="evenodd" d="M15.25 49L15.25 63.375H14L14 49H15.25ZM20.25 49L20.25 55.875H19L19 49H20.25ZM24.625 49V54.625H23.375V49H24.625ZM29.625 49V55.875H28.375V49H29.625ZM34 49V63.375H32.75L32.75 49H34Z" fill="#970B36"/>
</g>
<g clip-path="url(#clip1_59_13913)">
<rect x="44" y="44" width="40" height="40" fill="#C6CBD0"/>
<path d="M64 74L84 84.3125L64 44V74Z" fill="#FF7A02"/>
<path d="M64 74L44 84.3125L64 44V74Z" fill="#F8AA04"/>
<path d="M84.3125 84L44 84L64.3125 73.6875L84.3125 84Z" fill="#970B36"/>
</g>
<g clip-path="url(#clip2_59_13913)">
<rect x="84" y="44" width="40" height="40" fill="#C6CBD0"/>
<path d="M104 74C98.4772 74 94 69.5228 94 64V64C94 58.4771 98.4772 54 104 54V54C109.523 54 114 58.4772 114 64V64C114 69.5228 109.523 74 104 74V74Z" fill="#F8AA04"/>
<path fill-rule="evenodd" clip-rule="evenodd" d="M104 72.75C108.832 72.75 112.75 68.8325 112.75 64C112.75 59.1675 108.832 55.25 104 55.25C99.1675 55.25 95.25 59.1675 95.25 64C95.25 68.8325 99.1675 72.75 104 72.75ZM94 64C94 69.5228 98.4772 74 104 74C109.523 74 114 69.5228 114 64C114 58.4772 109.523 54 104 54C98.4772 54 94 58.4771 94 64Z" fill="#970B36"/>
<path fill-rule="evenodd" clip-rule="evenodd" d="M112.75 64.625L95.25 64.625L95.25 63.375L112.75 63.375L112.75 64.625Z" fill="#970B36"/>
</g>
<g clip-path="url(#clip3_59_13913)">
<path d="M34 94L4.00001 84L44 84L44 124L34 94Z" fill="#C6CBD0"/>
</g>
<g clip-path="url(#clip4_59_13913)">
<rect x="44" y="84" width="40" height="40" fill="#C6CBD0"/>
<path d="M44 94H46.5V114H44V94Z" fill="#3A434B"/>
<path d="M50.25 94H52.75V114H50.25V94Z" fill="#3A434B"/>
<path d="M56.5 94H59V114H56.5V94Z" fill="#3A434B"/>
<path d="M62.75 94H65.25V114H62.75V94Z" fill="#3A434B"/>
<path d="M69 94H71.5V114H69V94Z" fill="#3A434B"/>
<path d="M75.25 94H77.75V114H75.25V94Z" fill="#3A434B"/>
<path d="M81.5 94H84V114H81.5V94Z" fill="#3A434B"/>
<path d="M84 94V96.5L44 96.5L44 94H84Z" fill="#3A434B"/>
<path d="M84 111.5V114H44V111.5H84Z" fill="#3A434B"/>
</g>
<g clip-path="url(#clip5_59_13913)">
<path d="M94 94L84 124L84 84L124 84L94 94Z" fill="#C6CBD0"/>
</g>
<defs>
<clipPath id="clip0_59_13913">
<rect width="40" height="40" fill="white" transform="translate(4 44)"/>
</clipPath>
<clipPath id="clip1_59_13913">
<rect width="40" height="40" fill="white" transform="translate(44 44)"/>
</clipPath>
<clipPath id="clip2_59_13913">
<rect width="40" height="40" fill="white" transform="translate(84 44)"/>
</clipPath>
<clipPath id="clip3_59_13913">
<rect width="40" height="40" fill="white" transform="translate(44 124) rotate(-180)"/>
</clipPath>
<clipPath id="clip4_59_13913">
<rect width="40" height="40" fill="white" transform="translate(44 84)"/>
</clipPath>
<clipPath id="clip5_59_13913">
<rect width="40" height="40" fill="white" transform="translate(84 84)"/>
</clipPath>
</defs>
</svg>
